<?xml version="1.0" encoding="UTF-8" standalone="no"?>
<!DOCTYPE svg PUBLIC "-//W3C//DTD SVG 1.1//EN" "http://www.w3.org/Graphics/SVG/1.1/DTD/svg11.dtd">
<svg version="1.1" xmlns="http://www.w3.org/2000/svg" xmlns:xlink="http://www.w3.org/1999/xlink" preserveAspectRatio="xMidYMid meet" viewBox="152.71428571428578 138.6428571428571 28 25.785714285714278"><defs><path d="M180.71 146.86C180.71 151.39 177.03 155.07 172.5 155.07C167.97 155.07 164.29 151.39 164.29 146.86C164.29 142.32 167.97 138.64 172.5 138.64C177.03 138.64 180.71 142.32 180.71 146.86Z" id="nhvt97e2Oq"></path><path d="M164.14 154.57C164.14 157.73 161.58 160.29 158.43 160.29C155.27 160.29 152.71 157.73 152.71 154.57C152.71 151.42 155.27 148.86 158.43 148.86C161.58 148.86 164.14 151.42 164.14 154.57Z" id="xlFOxXBvv2"></path><path d="M175 160.86C175 162.83 173.4 164.43 171.43 164.43C169.46 164.43 167.86 162.83 167.86 160.86C167.86 158.89 169.46 157.29 171.43 157.29C173.4 157.29 175 158.89 175 160.86Z" id="XD0bxpXv0Z"></path></defs><g visibility="inherit"><g visibility="inherit"><use xlink:href="#nhvt97e2Oq" opacity="1" fill="#ff6b69" fill-opacity="1"></use></g><g visibility="inherit"><use xlink:href="#xlFOxXBvv2" opacity="1" fill="#fca72c" fill-opacity="1"></use></g><g visibility="inherit"><use xlink:href="#XD0bxpXv0Z" opacity="1" fill="#38bfb1" fill-opacity="1"></use></g></g></svg>